<svg xmlns="http://www.w3.org/2000/svg" xmlns:xlink="http://www.w3.org/1999/xlink" xmlns:xodm="http://www.corel.com/coreldraw/odm/2003" xml:space="preserve" width="76.5159mm" height="59.9081mm" style="shape-rendering:geometricPrecision; text-rendering:geometricPrecision; image-rendering:optimizeQuality; fill-rule:evenodd; clip-rule:evenodd" viewBox="0 0 2794.29 2187.79"> <defs> <style type="text/css"> .str1 {stroke:#1A3059;stroke-width:63.71;stroke-miterlimit:22.9256} .str0 {stroke:#1A3059;stroke-width:18.06;stroke-miterlimit:22.9256} .fil2 {fill:none} .fil0 {fill:none;fill-rule:nonzero} .fil5 {fill:#1A3059} .fil4 {fill:red} .fil1 {fill:#1A3059;fill-rule:nonzero} .fil3 {fill:red;fill-rule:nonzero} </style> </defs> <g id="Layer_x0020_1"> <metadata id="CorelCorpID_0Corel-Layer"></metadata> <g> <path class="fil0 str0" d="M92.2 9.03l1998.64 0c22.9,0 43.73,9.35 58.77,24.4 15.05,15.04 24.4,35.85 24.4,58.77l0 1087.48 -79.64 0 0 -1087.48c0,-0.93 -0.41,-1.81 -1.06,-2.47 -0.65,-0.65 -1.54,-1.07 -2.47,-1.07l-1998.64 0c-0.93,0 -1.81,0.42 -2.47,1.07 -0.65,0.65 -1.06,1.53 -1.06,2.47l0 1733.98c0,0.93 0.41,1.81 1.06,2.47 0.65,0.65 1.54,1.07 2.47,1.07l1383.73 0 0 79.64 -1383.73 0c-22.92,0 -43.73,-9.36 -58.77,-24.4 -15.04,-15.04 -24.39,-35.88 -24.39,-58.77l0 -1733.98c0,-22.92 9.35,-43.73 24.39,-58.77 15.05,-15.05 35.86,-24.4 58.77,-24.4z"></path> <path id="1" class="fil1" d="M92.2 9.03l1998.64 0c22.9,0 43.73,9.35 58.77,24.4 15.05,15.04 24.4,35.85 24.4,58.77l0 1087.48 -79.64 0 0 -1087.48c0,-0.93 -0.41,-1.81 -1.06,-2.47 -0.65,-0.65 -1.54,-1.07 -2.47,-1.07l-1998.64 0c-0.93,0 -1.81,0.42 -2.47,1.07 -0.65,0.65 -1.06,1.53 -1.06,2.47l0 1733.98c0,0.93 0.41,1.81 1.06,2.47 0.65,0.65 1.54,1.07 2.47,1.07l1383.73 0 0 79.64 -1383.73 0c-22.92,0 -43.73,-9.36 -58.77,-24.4 -15.04,-15.04 -24.39,-35.88 -24.39,-58.77l0 -1733.98c0,-22.92 9.35,-43.73 24.39,-58.77 15.05,-15.05 35.86,-24.4 58.77,-24.4z"></path> </g> <g> <line class="fil2 str1" x1="48.85" y1="652.33" x2="2134.19" y2="652.33"></line> </g> <g> <polygon class="fil1" points="1803.64,1286.17 48.85,1286.17 48.85,1222.57 1803.64,1222.57 "></polygon> </g> <g> <polygon class="fil1" points="1901.59,985.36 781.1,985.36 781.1,921.33 1901.59,921.33 "></polygon> </g> <g> <polygon class="fil3" points="1901.59,383.3 781.1,383.3 781.1,319.27 1901.59,319.27 "></polygon> </g> <circle class="fil4" cx="412.55" cy="347.12" r="128.41"></circle> <circle class="fil5" cx="412.55" cy="949.17" r="128.41"></circle> <circle class="fil4" cx="412.55" cy="1551.22" r="128.41"></circle> <g> <polygon class="fil3" points="1482.29,1595.99 781.1,1595.99 781.1,1531.57 1482.29,1531.57 "></polygon> </g> <g> <path class="fil1" d="M1832.45 1622.76l0.01 -53.42 251.26 -162.88 34.64 53.43 -251.26 162.88 0.01 -53.42 -34.66 53.42zm0 0l-41.18 -26.72 41.19 -26.7 -0.01 53.42zm268.59 136.3l-17.32 26.71 -251.26 -163.01 34.66 -53.42 251.26 163.01 -17.33 26.71zm672.56 -131.17l-874.41 0 0 -63.67 874.41 0 0 63.67z"></path> </g> <g> <path class="fil1" d="M2686.37 2029.91l-874.41 0 0 -63.67 874.41 0 0 63.67zm66.74 -5.13l-34.66 -53.42 0.01 53.42 -251.26 -162.88 34.64 -53.43 251.26 162.88 0.01 53.42zm0 0l-0.01 -53.42 41.19 26.7 -41.18 26.72zm-268.59 136.3l-17.33 -26.71 251.26 -163.01 34.66 53.42 -251.26 163.01 -17.32 -26.71z"></path> </g> </g> </svg>