<svg xmlns="http://www.w3.org/2000/svg" xmlns:xlink="http://www.w3.org/1999/xlink" xmlns:xodm="http://www.corel.com/coreldraw/odm/2003" xml:space="preserve" width="71.942mm" height="55.5232mm" style="shape-rendering:geometricPrecision; text-rendering:geometricPrecision; image-rendering:optimizeQuality; fill-rule:evenodd; clip-rule:evenodd" viewBox="0 0 319.15 246.31"> <defs>  <style type="text/css">   <![CDATA[    .str1 {stroke:#FEFEFE;stroke-width:1.17;stroke-miterlimit:22.9256}    .str0 {stroke:#FEFEFE;stroke-width:0.89;stroke-miterlimit:22.9256}    .fil1 {fill:none}    .fil2 {fill:#FEFEFE}    .fil0 {fill:#1A3059}    .fil3 {fill:red}   ]]>  </style>    <clipPath id="id0">     <path d="M8.42 0l230.69 0c4.63,0 8.42,3.79 8.42,8.42l0 141.87c0,4.63 -3.79,8.42 -8.42,8.42l-230.69 0c-4.63,0 -8.42,-3.79 -8.42,-8.42l0 -141.87c0,-4.63 3.79,-8.42 8.42,-8.42z"></path>    </clipPath> </defs> <g id="Layer_x0020_1">  <metadata id="CorelCorpID_0Corel-Layer"></metadata>  <g id="_1961732956144">   <path class="fil0" d="M8.42 0l230.69 0c4.63,0 8.42,3.79 8.42,8.42l0 141.87c0,4.63 -3.79,8.42 -8.42,8.42l-230.69 0c-4.63,0 -8.42,-3.79 -8.42,-8.42l0 -141.87c0,-4.63 3.79,-8.42 8.42,-8.42z"></path>   <g style="clip-path:url(#id0)">    <g>     <rect class="fil1 str0" transform="matrix(5.55457 -4.0578 5.55457 4.0578 -113.831 -77.6685)" width="42.9" height="42.9" rx="2.15" ry="2.15"></rect>     <rect class="fil2" x="68.51" y="103.31" width="245.73" height="138.08"></rect>    </g>   </g>   <path class="fil1" d="M8.42 0l230.69 0c4.63,0 8.42,3.79 8.42,8.42l0 141.87c0,4.63 -3.79,8.42 -8.42,8.42l-230.69 0c-4.63,0 -8.42,-3.79 -8.42,-8.42l0 -141.87c0,-4.63 3.79,-8.42 8.42,-8.42z"></path>   <rect class="fil3" x="73.42" y="108.23" width="245.73" height="138.08"></rect>   <line class="fil1 str1" x1="123.79" y1="158.71" x2="262.71" y2="158.71"></line>   <line class="fil1 str1" x1="123.79" y1="183.97" x2="262.71" y2="183.97"></line>   <line class="fil1 str1" x1="123.79" y1="209.23" x2="262.71" y2="209.23"></line>   <circle class="fil2" cx="290.94" cy="158.71" r="5.31"></circle>   <circle class="fil2" cx="290.94" cy="183.97" r="5.31"></circle>   <circle class="fil2" cx="290.94" cy="209.23" r="5.31"></circle>  </g> </g></svg>