<svg xmlns="http://www.w3.org/2000/svg" xmlns:xlink="http://www.w3.org/1999/xlink" xmlns:xodm="http://www.corel.com/coreldraw/odm/2003" xml:space="preserve" width="89.4879mm" height="60.8328mm" style="shape-rendering:geometricPrecision; text-rendering:geometricPrecision; image-rendering:optimizeQuality; fill-rule:evenodd; clip-rule:evenodd" viewBox="0 0 1471.16 1000.08"> <defs>  <style type="text/css">   <![CDATA[    .str0 {stroke:#2B2A29;stroke-width:3.29;stroke-miterlimit:22.9256}    .fil1 {fill:none}    .fil2 {fill:#2B2A29}    .fil0 {fill:#B5EBFF}   ]]>  </style> </defs> <g id="Layer_x0020_1">  <metadata id="CorelCorpID_0Corel-Layer"></metadata>  <g id="_1962818072272">   <path class="fil0" d="M533.69 196.21c-64.9,0 -122.07,21.79 -170.77,60.53 -29.85,23.75 -58.53,61.22 -73.05,95.73 -6.14,14.59 -12.21,30.15 -15.37,45.95 -4.18,20.95 -8.61,19.17 -24.79,16.02 -4.13,-0.8 -7.47,-1.22 -11.66,-1.86 -58.49,-8.94 -121.06,9.05 -165.39,46.18 -23.42,19.62 -41.78,44.09 -54.75,71.83 -11.32,24.2 -17.56,51.19 -17.93,81.01l1464.62 0 0.05 -0.2c9.03,-40.93 8.87,-87.91 -1.94,-128.4 -8.92,-33.42 -22.62,-63.9 -42.08,-90.71 -2.33,-3.21 -4.62,-6.14 -7.06,-9.26l-7.82 -9.05c-4.31,-5.66 -11.1,-11.73 -16.28,-16.91 -3.9,-3.9 -8.9,-7.52 -13.55,-11.2 -1.62,-1.28 -3.25,-2.45 -4.88,-3.57 -20.96,-14.32 -41.3,-25.82 -67.25,-32.35 -9.06,-2.28 -18.27,-4.4 -28.03,-5.24 -12.05,-1.04 -17.19,-1.88 -18.76,-14.32 -5.55,-44.15 -19.57,-86.45 -40.43,-124.96 -4.05,-7.48 -8.19,-13.72 -12.49,-20.71 -11.83,-19.21 -28.47,-39.53 -44.58,-55.01 -2.66,-2.55 -5.25,-5.68 -8.13,-8.16 -18.49,-15.96 -25.13,-22.14 -47.26,-36.01 -49.66,-31.14 -100.87,-45.53 -162.58,-45.53 -46.89,0 -94.59,13.9 -130.04,32.51 -21.83,11.46 -42.14,24.73 -60.67,40.58 -5.55,4.75 -10.86,9.15 -15.73,14.65 -6.1,6.9 -12.74,12.48 -19.8,21.27 -1.51,1.88 -2.92,3.51 -4.58,5.53l-17.39 23.13c-8.71,12.23 -15.53,24.94 -22.55,38.21 -4.44,8.39 -9.49,19.28 -12.78,28.28 -1.95,5.35 -3.52,10.37 -7.28,13 -5.69,3.98 -9.57,1.5 -15.1,-0.73 -32.3,-13.05 -65.66,-20.22 -101.95,-20.22z"></path>   <rect class="fil1 str0" x="717.59" y="405.08" width="431.44" height="431.44"></rect>   <rect class="fil2" x="577.09" y="390.91" width="712.44" height="46.67"></rect>   <rect class="fil2" x="577.09" y="804.04" width="712.44" height="46.67"></rect>   <path class="fil2" d="M577.09 597.48l140.5 0 0 46.67 -140.5 0 0 -46.67zm571.95 0l140.49 0 0 46.67 -140.49 0 0 -46.67z"></path>   <path class="fil2" d="M909.99 1000.08l0 -182.69 46.67 0 0 182.69 -46.67 0zm0 -571.95l0 -140.49 46.67 0 0 140.49 -46.67 0z"></path>   <rect class="fil2" transform="matrix(2.43249E-13 -9.18455 3.25944 8.63246E-14 1113.44 1000.07)" width="77.57" height="14.32"></rect>   <rect class="fil2" transform="matrix(2.43249E-13 -9.18455 3.25944 8.63246E-14 707.062 1000.07)" width="77.57" height="14.32"></rect>   <rect class="fil2" x="849.95" y="537.44" width="166.73" height="166.73"></rect>  </g> </g></svg>