<svg xmlns="http://www.w3.org/2000/svg" xmlns:xlink="http://www.w3.org/1999/xlink" xmlns:xodm="http://www.corel.com/coreldraw/odm/2003" xml:space="preserve" width="89.4879mm" height="56.8228mm" style="shape-rendering:geometricPrecision; text-rendering:geometricPrecision; image-rendering:optimizeQuality; fill-rule:evenodd; clip-rule:evenodd" viewBox="0 0 675.74 429.08"> <defs>  <style type="text/css">   <![CDATA[    .fil3 {fill:black}    .fil1 {fill:#1A3059}    .fil0 {fill:#B5EBFF}    .fil2 {fill:red}   ]]>  </style> </defs> <g id="Layer_x0020_1">  <metadata id="CorelCorpID_0Corel-Layer"></metadata>  <path class="fil0" d="M245.14 90.12c-29.81,0 -56.07,10.01 -78.44,27.8 -13.71,10.91 -26.89,28.12 -33.55,43.97 -2.82,6.7 -5.61,13.85 -7.06,21.11 -1.92,9.62 -3.95,8.8 -11.38,7.36 -1.9,-0.37 -3.43,-0.56 -5.35,-0.85 -26.86,-4.11 -55.61,4.16 -75.97,21.21 -10.76,9.01 -19.19,20.25 -25.15,32.99 -5.2,11.12 -8.07,23.51 -8.23,37.21l672.73 0 0.02 -0.09c4.15,-18.8 4.07,-40.38 -0.89,-58.98 -4.1,-15.35 -10.39,-29.35 -19.33,-41.66 -1.07,-1.48 -2.12,-2.82 -3.24,-4.25l-3.59 -4.16c-1.98,-2.6 -5.1,-5.39 -7.48,-7.77 -1.79,-1.79 -4.09,-3.45 -6.22,-5.14 -0.74,-0.59 -1.49,-1.13 -2.24,-1.64 -9.63,-6.58 -18.97,-11.86 -30.89,-14.86 -4.16,-1.05 -8.39,-2.02 -12.88,-2.41 -5.53,-0.48 -7.9,-0.87 -8.62,-6.58 -2.55,-20.28 -8.99,-39.71 -18.57,-57.4 -1.86,-3.43 -3.76,-6.3 -5.74,-9.51 -5.43,-8.83 -13.08,-18.16 -20.47,-25.27 -1.22,-1.17 -2.41,-2.61 -3.74,-3.75 -8.49,-7.33 -11.54,-10.17 -21.71,-16.54 -22.81,-14.3 -46.33,-20.92 -74.68,-20.92 -21.54,0 -43.45,6.39 -59.73,14.93 -10.03,5.26 -19.36,11.36 -27.87,18.64 -2.55,2.18 -4.99,4.2 -7.22,6.73 -2.8,3.17 -5.85,5.73 -9.09,9.77 -0.69,0.86 -1.34,1.61 -2.1,2.54l-7.99 10.62c-4,5.62 -7.13,11.46 -10.36,17.55 -2.04,3.85 -4.36,8.85 -5.87,12.99 -0.9,2.46 -1.62,4.76 -3.35,5.97 -2.61,1.83 -4.4,0.69 -6.94,-0.34 -14.84,-6 -30.16,-9.29 -46.83,-9.29z"></path>  <path class="fil0" d="M460.74 291.91c20.79,20.72 22.13,16.94 5.56,33.34 -2.72,2.7 -9.47,10.89 -13.73,11.15 -3.76,0.22 -6.43,-2.09 -6.49,-5.79 -0.1,-6.35 12.67,-12.6 16.42,-20.05 -6.14,-6.1 -17.28,-14.87 -16.28,-20.22 0.62,-3.32 3.8,-5.5 7.9,-4.42 2.41,0.64 5.04,4.41 6.62,5.99zm-79.2 18.67c1.9,3.69 8.8,9.55 12.12,12.83 9.23,9.11 1.63,13.62 -2.9,12.92 -3.67,-0.57 -10.78,-8.86 -13.41,-11.5 -12.37,-12.41 -14.3,-12.92 -6.02,-20.89 3.97,-3.82 16.38,-17.62 19.35,-18.14 3.8,-0.68 12.69,3.08 2.74,12.93 -4.15,4.1 -7.89,7.89 -11.88,11.86zm46.56 -28.79c3.61,-1.8 11.6,-1.11 7.17,10.78 -3.44,9.24 -15.14,45.98 -19.11,47.97 -7,3.53 -10.29,-3.51 -7.49,-10.85 2.09,-5.48 3.94,-10.92 5.92,-16.43 1.98,-5.5 3.98,-10.81 5.97,-16.37 2.94,-8.23 3.32,-13.01 7.54,-15.11zm41.74 86.88c3.43,-0.28 1.13,0.66 3.91,-2.03 1.05,-1.01 1.7,-1.89 2.83,-2.98 2.81,-2.73 4.01,-3.16 5.22,-7.29 -4.93,-3.27 -0.87,-8.51 1.12,-12.02 11.21,-19.73 11.39,-47.47 -0.17,-67.02 -2.26,-3.82 -4.34,-6.8 -6.64,-9.91 -11.19,-15.13 -34.41,-27.11 -58.24,-25.7 -46.94,2.77 -79.4,51.99 -59.23,97.66 9.94,22.52 32.15,39.5 59.21,41 36.22,2.01 43.69,-19.54 52,-11.72z"></path>  <path class="fil1" d="M431.79 392.91c-4.91,-0.98 -11.08,0.16 -16.42,-0.27 -12.91,-1.04 -25,-5.12 -35.59,-11.5 -12.47,-7.52 -23.72,-19.07 -30.67,-33.07 -18.08,-36.4 -6.81,-71.87 14.38,-94.17 33.41,-35.15 96.52,-34.32 127.65,13.39 15.31,23.46 10.97,40.24 13.06,50.2 -0.95,1.42 -7.54,43.75 -19.81,40.31l-2.59 -1.43c-1.2,4.13 -2.41,4.56 -5.22,7.29 -1.13,1.09 -1.79,1.97 -2.83,2.98 -2.78,2.69 -0.48,1.75 -3.91,2.03 3.81,4.79 1.74,7.55 -2.6,10.51 -13.84,9.42 -34.81,13.44 -34.81,13.44 -0.12,-0.19 -0.44,0.17 -0.64,0.3zm83.62 -117.96c-0.71,-6.25 -6.71,-11.68 -5.87,-17.93 0.47,-3.51 7.97,-12.04 9.88,-14.92l-28.35 -28.79c-16.98,12.14 -11.18,13.23 -29.2,5.45 -18.54,-8 -16.81,-2.07 -19.53,-25.27 -4.11,-1.05 -36.54,-1.04 -40.68,-0.01 -2.68,23.46 -0.93,17.24 -19.52,25.27 -18.28,7.9 -12.26,6.49 -29.05,-5.3l-28.73 28.41c1.56,2.2 3.19,4.32 4.68,6.32 1.28,1.71 3.75,4.36 4.6,6.15 2.83,6 -1.91,11.8 -4.04,16.99 -1.88,4.58 -3.52,12.56 -6.88,15.46 -6.11,5.26 -17.14,0.3 -18.54,6l-0.13 38.31c5.75,1.35 14.11,0.49 18.33,4.02 3.62,3.03 4.86,10.19 7.06,15.26 2.1,4.83 6.78,10.99 4.38,16.98 -1.57,3.93 -7.51,8.9 -9.22,12.92l28.46 28.41c3.22,-2.49 11.39,-9.67 15.29,-10.13 6.46,-0.76 12.43,6.18 18.94,6.22l1.06 0.78c9.77,5.5 10.25,-1.19 13.33,23.16l40.62 0.36c2.81,-22.37 0.65,-17.76 18.87,-25.35 16.9,-7.04 11.53,-8.71 29.5,4.69l28.75 -28.13c-1.67,-4.06 -7.67,-9.05 -9.23,-12.93 -2.4,-5.95 2.29,-12.14 4.38,-16.97 2.19,-5.05 3.45,-12.21 7.06,-15.25 4.29,-3.62 12.51,-2.51 18.33,-4.02l0.08 -30.26c0.01,-1.62 0.1,-3.46 0.08,-5.03 -0.19,-10.64 -9.33,-3.52 -17.37,-8 -5.56,-3.1 -3.9,-8.66 -7.34,-12.85z"></path>  <path class="fil2" d="M431.79 392.91c0.2,-0.13 0.52,-0.49 0.64,-0.3 0,0.01 20.97,-4.01 34.81,-13.44 4.34,-2.95 6.41,-5.71 2.6,-10.51 -8.31,-7.83 -15.78,13.73 -52,11.72 -27.06,-1.5 -49.27,-18.48 -59.21,-41 -20.16,-45.68 12.29,-94.89 59.23,-97.66 23.83,-1.41 47.05,10.57 58.24,25.7 2.3,3.11 4.38,6.09 6.64,9.91 11.56,19.55 11.38,47.29 0.17,67.02 -1.99,3.51 -6.05,8.75 -1.12,12.02l2.59 1.43c12.27,3.44 18.86,-38.89 19.81,-40.31 -2.09,-9.97 2.25,-26.74 -13.06,-50.2 -31.14,-47.71 -94.25,-48.54 -127.65,-13.39 -21.19,22.3 -32.46,57.76 -14.38,94.17 6.95,14 18.21,25.55 30.67,33.07 10.59,6.39 22.68,10.47 35.59,11.5 5.33,0.43 11.5,-0.71 16.42,0.27z"></path>  <path class="fil2" d="M291.88 156.72c16.12,0.01 9.23,8.84 10.57,39.82 0.32,7.33 6.41,10.99 9.95,14.53 4.3,4.3 8.46,8.25 12.52,12.47 2.61,-2.52 7.27,-6.65 9.19,-9.52 -3.42,-3.48 -6.65,-6.69 -10.24,-10.28 -3.63,-3.63 -8.04,-5.72 -8.04,-12.93 0,-31.86 -2.93,-33.11 10.72,-34.25 -2.67,-4.94 -13.54,-16.21 -16.76,-22.16 -3.24,1.84 -17.29,20.85 -17.91,22.32z"></path>  <path class="fil2" d="M517.49 156.55c13.65,1.14 10.72,2.45 10.72,34.25 0,7.7 -10.31,15.14 -18.28,23.22l9.18 9.53c3.94,-4.1 7.96,-7.9 12.12,-12.07 13.59,-13.59 10.39,-9.16 10.36,-38.88 -0.01,-11.3 -2.18,-15.87 10.57,-15.88 -0.89,-2.2 -14.31,-20.34 -17.89,-22.32 -3.18,5.93 -13.67,16.68 -16.78,22.16z"></path>  <path class="fil3" d="M462.5 310.56c-3.75,7.45 -16.52,13.7 -16.42,20.05 0.06,3.7 2.73,6.01 6.49,5.79 4.26,-0.25 11,-8.45 13.73,-11.15 16.58,-16.41 15.23,-12.63 -5.56,-33.34 -1.58,-1.57 -4.21,-5.35 -6.62,-5.99 -4.1,-1.09 -7.28,1.09 -7.9,4.42 -1,5.35 10.14,14.12 16.28,20.22z"></path>  <path class="fil3" d="M381.54 310.58c3.99,-3.98 7.73,-7.76 11.88,-11.86 9.95,-9.85 1.06,-13.6 -2.74,-12.93 -2.97,0.53 -15.38,14.32 -19.35,18.14 -8.28,7.97 -6.35,8.48 6.02,20.89 2.63,2.64 9.74,10.93 13.41,11.5 4.52,0.7 12.13,-3.81 2.9,-12.92 -3.32,-3.27 -10.22,-9.13 -12.12,-12.83z"></path>  <path class="fil3" d="M428.1 281.79c-4.22,2.1 -4.6,6.89 -7.54,15.11 -1.99,5.56 -3.99,10.87 -5.97,16.37 -1.99,5.51 -3.83,10.95 -5.92,16.43 -2.8,7.34 0.48,14.38 7.49,10.85 3.97,-2 15.67,-38.74 19.11,-47.97 4.42,-11.89 -3.56,-12.58 -7.17,-10.78z"></path> </g></svg>