<svg xmlns="http://www.w3.org/2000/svg" xmlns:xlink="http://www.w3.org/1999/xlink" xmlns:xodm="http://www.corel.com/coreldraw/odm/2003" xml:space="preserve" width="14.8388mm" height="20.268mm" style="shape-rendering:geometricPrecision; text-rendering:geometricPrecision; image-rendering:optimizeQuality; fill-rule:evenodd; clip-rule:evenodd" viewBox="0 0 8.54 11.67"> <defs> <style type="text/css"> .str1 {stroke:#FEFEFE;stroke-width:0.3;stroke-miterlimit:22.9256} .str2 {stroke:#2B2A29;stroke-width:0.3;stroke-miterlimit:22.9256} .str0 {stroke:#1A3059;stroke-width:0.3;stroke-miterlimit:22.9256} .fil2 {fill:none} .fil3 {fill:#FEFEFE} .fil4 {fill:#1A3059} .fil0 {fill:#B5EBFF} .fil1 {fill:red} </style> <clipPath id="id0"> <path d="M0.15 1.12l5.58 0 0 5.93 -0.01 0c0.01,0.03 0.01,0.05 0.01,0.08 0,0.54 -1.25,0.98 -2.79,0.98 -1.54,0 -2.79,-0.44 -2.79,-0.98 0,-0.03 0,-0.05 0.01,-0.08l-0.01 0 0 -5.93z"></path> </clipPath> </defs> <g id="Layer_x0020_1"> <metadata id="CorelCorpID_0Corel-Layer"></metadata> <path class="fil0" d="M0.15 1.12l5.58 0 0 5.93 -0.01 0c0.01,0.03 0.01,0.05 0.01,0.08 0,0.54 -1.25,0.98 -2.79,0.98 -1.54,0 -2.79,-0.44 -2.79,-0.98 0,-0.03 0,-0.05 0.01,-0.08l-0.01 0 0 -5.93z"></path> <g style="clip-path:url(#id0)"> <g id="_2919853295472"> <path id="1" class="fil1 str0" d="M-0.06 -0.9l6 0 0 5.93 -0.01 0c0.01,0.03 0.01,0.05 0.01,0.08 0,0.54 -1.34,0.98 -3,0.98 -1.66,0 -3,-0.44 -3,-0.98 0,-0.03 0,-0.05 0.01,-0.08l-0.01 0 0 -5.93z"></path> <path class="fil0 str0" d="M-0.06 -2.81l6 0 0 5.93 -0.01 0c0.01,0.03 0.01,0.05 0.01,0.08 0,0.54 -1.34,0.98 -3,0.98 -1.66,0 -3,-0.44 -3,-0.98 0,-0.03 0,-0.05 0.01,-0.08l-0.01 0 0 -5.93z"></path> </g> </g> <path class="fil2 str0" d="M0.15 1.12l5.58 0 0 5.93 -0.01 0c0.01,0.03 0.01,0.05 0.01,0.08 0,0.54 -1.25,0.98 -2.79,0.98 -1.54,0 -2.79,-0.44 -2.79,-0.98 0,-0.03 0,-0.05 0.01,-0.08l-0.01 0 0 -5.93z"></path> <ellipse class="fil1 str0" cx="2.94" cy="1.14" rx="2.79" ry="0.98"></ellipse> <path class="fil3" d="M6.72 8.42c0.51,0.51 0.55,0.42 0.14,0.82 -0.07,0.07 -0.23,0.27 -0.34,0.27 -0.09,0.01 -0.16,-0.05 -0.16,-0.14 -0,-0.16 0.31,-0.31 0.4,-0.49 -0.15,-0.15 -0.43,-0.37 -0.4,-0.5 0.02,-0.08 0.09,-0.14 0.19,-0.11 0.06,0.02 0.12,0.11 0.16,0.15zm-1.95 0.46c0.05,0.09 0.22,0.24 0.3,0.32 0.23,0.22 0.04,0.34 -0.07,0.32 -0.09,-0.01 -0.27,-0.22 -0.33,-0.28 -0.3,-0.31 -0.35,-0.32 -0.15,-0.51 0.1,-0.09 0.4,-0.43 0.48,-0.45 0.09,-0.02 0.31,0.08 0.07,0.32 -0.1,0.1 -0.19,0.19 -0.29,0.29zm1.15 -0.71c0.09,-0.04 0.29,-0.03 0.18,0.27 -0.08,0.23 -0.37,1.13 -0.47,1.18 -0.17,0.09 -0.25,-0.09 -0.18,-0.27 0.05,-0.13 0.1,-0.27 0.15,-0.4 0.05,-0.14 0.1,-0.27 0.15,-0.4 0.07,-0.2 0.08,-0.32 0.19,-0.37zm1.03 2.14c0.08,-0.01 0.03,0.02 0.1,-0.05 0.03,-0.02 0.04,-0.05 0.07,-0.07 0.07,-0.07 0.1,-0.08 0.13,-0.18 -0.12,-0.08 -0.02,-0.21 0.03,-0.3 0.28,-0.49 0.28,-1.17 -0,-1.65 -0.06,-0.09 -0.11,-0.17 -0.16,-0.24 -0.28,-0.37 -0.85,-0.67 -1.43,-0.63 -1.16,0.07 -1.96,1.28 -1.46,2.41 0.24,0.55 0.79,0.97 1.46,1.01 0.89,0.05 1.08,-0.48 1.28,-0.29z"></path> <path class="fil4 str0" d="M7.84 8.09c-0.02,-0.14 -0.15,-0.26 -0.13,-0.4 0.01,-0.08 0.18,-0.27 0.22,-0.33l-0.63 -0.64c-0.38,0.27 -0.25,0.29 -0.65,0.12 -0.41,-0.18 -0.37,-0.05 -0.43,-0.56 -0.09,-0.02 -0.81,-0.02 -0.9,-0 -0.06,0.52 -0.02,0.38 -0.43,0.56 -0.41,0.18 -0.27,0.14 -0.65,-0.12l-0.64 0.63c0.03,0.05 0.07,0.1 0.1,0.14 0.03,0.04 0.08,0.1 0.1,0.14 0.06,0.13 -0.04,0.26 -0.09,0.38 -0.04,0.1 -0.08,0.28 -0.15,0.34 -0.14,0.12 -0.38,0.01 -0.41,0.13l-0 0.85c0.13,0.03 0.31,0.01 0.41,0.09 0.08,0.07 0.11,0.23 0.16,0.34 0.05,0.11 0.15,0.24 0.1,0.38 -0.03,0.09 -0.17,0.2 -0.2,0.29l0.63 0.63c0.07,-0.06 0.25,-0.21 0.34,-0.23 0.14,-0.02 0.28,0.14 0.42,0.14l0.02 0.02c0.22,0.12 0.23,-0.03 0.3,0.51l0.9 0.01c0.06,-0.5 0.01,-0.39 0.42,-0.56 0.38,-0.16 0.26,-0.19 0.66,0.1l0.64 -0.63c-0.04,-0.09 -0.17,-0.2 -0.21,-0.29 -0.05,-0.13 0.05,-0.27 0.1,-0.38 0.05,-0.11 0.08,-0.27 0.16,-0.34 0.1,-0.08 0.28,-0.06 0.41,-0.09l0 -0.67c0,-0.04 0,-0.08 0,-0.11 -0,-0.24 -0.21,-0.08 -0.39,-0.18 -0.12,-0.07 -0.09,-0.19 -0.16,-0.29z"></path> <path class="fil4" d="M6.66 8.88c-0.08,0.17 -0.37,0.3 -0.36,0.45 0,0.08 0.06,0.13 0.14,0.13 0.09,-0.01 0.24,-0.19 0.3,-0.25 0.37,-0.36 0.34,-0.28 -0.12,-0.74 -0.04,-0.03 -0.09,-0.12 -0.15,-0.13 -0.09,-0.02 -0.16,0.02 -0.18,0.1 -0.02,0.12 0.23,0.31 0.36,0.45z"></path> <path class="fil4" d="M4.87 8.88c0.09,-0.09 0.17,-0.17 0.26,-0.26 0.22,-0.22 0.02,-0.3 -0.06,-0.29 -0.07,0.01 -0.34,0.32 -0.43,0.4 -0.18,0.18 -0.14,0.19 0.13,0.46 0.06,0.06 0.22,0.24 0.3,0.26 0.1,0.02 0.27,-0.08 0.06,-0.29 -0.07,-0.07 -0.23,-0.2 -0.27,-0.28z"></path> <circle class="fil1 str1" cx="5.77" cy="8.89" r="1.51"></circle> <circle class="fil2 str2" cx="4.67" cy="3.18" r="0.26"></circle> <circle class="fil2 str1" cx="4.67" cy="5.12" r="0.26"></circle> <line class="fil2 str2" x1="1.91" y1="3.18" x2="3.97" y2="3.18"></line> <line class="fil2 str1" x1="1.91" y1="5.12" x2="3.97" y2="5.12"></line> <path class="fil4" d="M5.9 8.24c-0.09,0.05 -0.1,0.15 -0.17,0.34 -0.04,0.12 -0.09,0.24 -0.13,0.36 -0.04,0.12 -0.09,0.24 -0.13,0.36 -0.06,0.16 0.01,0.32 0.17,0.24 0.09,-0.04 0.35,-0.86 0.42,-1.07 0.1,-0.26 -0.08,-0.28 -0.16,-0.24z"></path> </g> </svg>