<svg xmlns="http://www.w3.org/2000/svg" xmlns:xlink="http://www.w3.org/1999/xlink" xmlns:xodm="http://www.corel.com/coreldraw/odm/2003" xml:space="preserve" width="69.5433mm" height="44.4322mm" style="shape-rendering:geometricPrecision; text-rendering:geometricPrecision; image-rendering:optimizeQuality; fill-rule:evenodd; clip-rule:evenodd" viewBox="0 0 5389.79 3443.61"> <defs> <style type="text/css"> .str0 {stroke:#1A3059;stroke-width:54.69;stroke-miterlimit:22.9256} .fil4 {fill:none} .fil1 {fill:#FEFEFE} .fil5 {fill:#00B72B} .fil0 {fill:#1A3059} .fil2 {fill:red} .fil3 {fill:#00B72B;fill-rule:nonzero} </style> </defs> <g id="Layer_x0020_1"> <metadata id="CorelCorpID_0Corel-Layer"></metadata> <rect class="fil0" x="-0" y="2866.03" width="2228.17" height="577.58" rx="94.43" ry="85.6"></rect> <circle class="fil1" cx="1874.08" cy="3153.67" r="142.13"></circle> <circle class="fil1" cx="1391.06" cy="3153.67" r="142.13"></circle> <rect class="fil1" x="676.71" y="2994.32" width="85.89" height="310.09"></rect> <rect class="fil1" x="524.28" y="2994.32" width="85.89" height="310.09"></rect> <rect class="fil1" x="371.85" y="2994.32" width="85.89" height="310.09"></rect> <rect class="fil1" x="219.42" y="2994.32" width="85.89" height="310.09"></rect> <rect class="fil2" x="-0" y="2036.38" width="2228.17" height="577.58" rx="94.43" ry="85.6"></rect> <circle class="fil1" cx="1874.08" cy="2324.01" r="142.13"></circle> <circle class="fil1" cx="1391.06" cy="2324.01" r="142.13"></circle> <rect class="fil1" x="676.71" y="2164.66" width="85.89" height="310.09"></rect> <rect class="fil1" x="524.28" y="2164.66" width="85.89" height="310.09"></rect> <rect class="fil1" x="371.85" y="2164.66" width="85.89" height="310.09"></rect> <rect class="fil1" x="219.42" y="2164.66" width="85.89" height="310.09"></rect> <g id="_2919898712864"> <rect class="fil2" x="3161.61" y="1206.72" width="2228.17" height="577.58" rx="94.43" ry="85.6"></rect> <circle class="fil1" cx="5035.69" cy="1494.36" r="142.13"></circle> <circle class="fil1" cx="4552.67" cy="1494.36" r="142.13"></circle> <rect class="fil1" x="3838.33" y="1335" width="85.89" height="310.09"></rect> <rect class="fil1" x="3685.9" y="1335" width="85.89" height="310.09"></rect> <rect class="fil1" x="3533.47" y="1335" width="85.89" height="310.09"></rect> <rect class="fil1" x="3381.03" y="1335" width="85.89" height="310.09"></rect> <rect class="fil2" x="3161.61" y="2866.03" width="2228.17" height="577.58" rx="94.43" ry="85.6"></rect> <circle class="fil1" cx="5035.69" cy="3153.67" r="142.13"></circle> <circle class="fil1" cx="4552.67" cy="3153.67" r="142.13"></circle> <rect class="fil1" x="3838.33" y="2994.32" width="85.89" height="310.09"></rect> <rect class="fil1" x="3685.9" y="2994.32" width="85.89" height="310.09"></rect> <rect class="fil1" x="3533.47" y="2994.32" width="85.89" height="310.09"></rect> <rect class="fil1" x="3381.03" y="2994.32" width="85.89" height="310.09"></rect> <rect class="fil0" x="3161.61" y="2036.38" width="2228.17" height="577.58" rx="94.43" ry="85.6"></rect> <circle class="fil1" cx="5035.69" cy="2324.02" r="142.13"></circle> <circle class="fil1" cx="4552.67" cy="2324.02" r="142.13"></circle> <rect class="fil1" x="3838.33" y="2164.66" width="85.89" height="310.09"></rect> <rect class="fil1" x="3685.9" y="2164.66" width="85.89" height="310.09"></rect> <rect class="fil1" x="3533.47" y="2164.66" width="85.89" height="310.09"></rect> <rect class="fil1" x="3381.03" y="2164.66" width="85.89" height="310.09"></rect> </g> <g> <path class="fil3" d="M2604.37 6.84c458.34,0 873.32,185.79 1173.68,486.16 32.01,32.01 62.71,65.31 92.02,99.83l-31.71 33.5c-29.47,-34.92 -60.42,-68.61 -92.72,-100.92 -292.06,-292.07 -695.57,-472.73 -1141.26,-472.73 -445.69,0 -849.2,180.66 -1141.27,472.73 -164.24,164.24 -307.01,440.49 -388.47,662.9l-48.72 0c83.4,-235.05 232,-522.54 404.77,-695.31 300.36,-300.37 715.35,-486.16 1173.68,-486.16z"></path> <path id="1" class="fil3" d="M3782.88 488.16l-9.67 9.67 0 0 -28.37 -27.71 -29.03 -27.02 -29.68 -26.34 -30.3 -25.63 -30.93 -24.89 -31.52 -24.17 -32.12 -23.42 -32.7 -22.66 -33.25 -21.9 -33.81 -21.1 -34.35 -20.31 -34.88 -19.5 -35.38 -18.67 -35.89 -17.83 -36.37 -16.98 -36.85 -16.13 -37.3 -15.23 -37.76 -14.36 -38.19 -13.45 -38.61 -12.53 -39.01 -11.61 -39.43 -10.66 -39.79 -9.72 -40.18 -8.74 -40.53 -7.77 -40.87 -6.77 -41.21 -5.77 -41.52 -4.75 -41.84 -3.71 -42.11 -2.67 -42.39 -1.61 -42.67 -0.54 0 -13.67 43.01 0.54 42.75 1.63 42.46 2.7 42.18 3.74 41.86 4.78 41.55 5.81 41.21 6.83 40.87 7.83 40.5 8.82 40.13 9.8 39.75 10.76 39.34 11.7 38.94 12.64 38.5 13.56 38.07 14.47 37.63 15.37 37.15 16.25 36.68 17.12 36.19 17.99 35.67 18.83 35.17 19.65 34.63 20.48 34.09 21.28 33.53 22.07 32.96 22.85 32.38 23.62 31.78 24.36 31.18 25.11 30.56 25.83 29.91 26.55 29.28 27.25 28.61 27.93 0 0zm92.14 109.36l-9.92 -9.39 -0.25 9.12 -2.74 -3.22 -2.75 -3.22 -2.75 -3.21 -2.77 -3.19 -2.77 -3.19 -2.77 -3.19 -2.8 -3.17 -2.8 -3.18 -2.8 -3.16 -2.81 -3.15 -2.82 -3.15 -2.84 -3.14 -2.83 -3.13 -2.85 -3.13 -2.84 -3.12 -2.86 -3.11 -2.88 -3.11 -2.88 -3.09 -2.88 -3.09 -2.89 -3.08 -2.9 -3.07 -2.91 -3.07 -2.92 -3.06 -2.91 -3.05 -2.93 -3.05 -2.95 -3.04 -2.95 -3.03 -2.95 -3.01 -2.96 -3.02 -2.98 -3.01 -2.97 -2.99 -2.99 -2.99 9.67 -9.67 3.01 3.02 3 3.02 2.99 3.03 2.99 3.04 2.98 3.05 2.96 3.06 2.96 3.05 2.96 3.08 2.95 3.08 2.94 3.08 2.94 3.1 2.91 3.1 2.92 3.1 2.91 3.12 2.89 3.12 2.89 3.12 2.89 3.14 2.88 3.15 2.87 3.15 2.86 3.16 2.85 3.17 2.84 3.17 2.84 3.18 2.83 3.19 2.81 3.19 2.81 3.2 2.81 3.22 2.79 3.21 2.8 3.22 2.78 3.24 2.77 3.23 2.76 3.25 -0.25 9.12zm0.25 -9.12l3.97 4.67 -4.22 4.45 0.25 -9.12zm-41.88 33.23l31.71 -33.5 9.92 9.39 -31.71 33.5 -10.18 -0.29 0.26 -9.11zm9.92 9.39l-5.25 5.55 -4.93 -5.84 10.18 0.29zm-102.52 -100.78l9.67 -9.67 0 0 3.04 3.05 3.02 3.06 3.02 3.05 3.01 3.07 3.01 3.08 3 3.08 2.98 3.1 2.98 3.1 2.97 3.11 2.97 3.12 2.96 3.13 2.94 3.13 2.95 3.14 2.93 3.15 2.92 3.15 2.91 3.16 2.91 3.17 2.9 3.19 2.89 3.19 2.88 3.19 2.87 3.2 2.87 3.22 2.85 3.21 2.85 3.23 2.84 3.22 2.84 3.25 2.82 3.26 2.81 3.25 2.8 3.26 2.81 3.26 2.79 3.28 2.77 3.29 -10.45 8.82 -2.76 -3.26 -2.76 -3.25 -2.77 -3.25 -2.78 -3.23 -2.8 -3.23 -2.79 -3.22 -2.81 -3.2 -2.82 -3.21 -2.82 -3.2 -2.84 -3.19 -2.84 -3.19 -2.85 -3.17 -2.85 -3.18 -2.86 -3.15 -2.88 -3.15 -2.88 -3.14 -2.9 -3.15 -2.89 -3.12 -2.91 -3.12 -2.91 -3.12 -2.92 -3.1 -2.93 -3.1 -2.94 -3.08 -2.95 -3.09 -2.95 -3.07 -2.97 -3.07 -2.97 -3.06 -2.98 -3.05 -2.98 -3.04 -3.01 -3.04 -3.01 -3.03 -3.01 -3.01 0 0zm-1136.42 -470.73l0 -13.67 0 0 41.83 0.53 41.57 1.58 41.3 2.62 41.01 3.64 40.71 4.65 40.4 5.66 40.08 6.64 39.74 7.61 39.39 8.58 39.04 9.52 38.65 10.46 38.26 11.39 37.87 12.29 37.44 13.19 37.03 14.07 36.58 14.96 36.12 15.8 35.67 16.66 35.19 17.49 34.7 18.31 34.2 19.11 33.67 19.91 33.16 20.7 32.61 21.46 32.06 22.22 31.49 22.97 30.91 23.7 30.32 24.41 29.72 25.12 29.09 25.82 28.47 26.5 27.82 27.16 -9.67 9.67 -27.59 -26.95 -28.22 -26.27 -28.85 -25.61 -29.46 -24.92 -30.07 -24.21 -30.64 -23.5 -31.23 -22.77 -31.79 -22.03 -32.33 -21.29 -32.88 -20.51 -33.4 -19.74 -33.91 -18.96 -34.4 -18.15 -34.89 -17.34 -35.36 -16.52 -35.83 -15.67 -36.27 -14.82 -36.71 -13.96 -37.13 -13.08 -37.54 -12.18 -37.94 -11.29 -38.33 -10.37 -38.7 -9.44 -39.06 -8.5 -39.39 -7.55 -39.74 -6.58 -40.06 -5.61 -40.37 -4.62 -40.67 -3.61 -40.96 -2.59 -41.22 -1.57 -41.49 -0.53 0 0zm-1136.43 470.73l-9.67 -9.67 0 0 27.82 -27.16 28.47 -26.5 29.09 -25.82 29.72 -25.12 30.32 -24.41 30.91 -23.7 31.49 -22.97 32.06 -22.22 32.61 -21.46 33.16 -20.7 33.67 -19.91 34.2 -19.11 34.7 -18.31 35.19 -17.49 35.67 -16.66 36.12 -15.8 36.58 -14.96 37.03 -14.07 37.44 -13.19 37.87 -12.29 38.26 -11.39 38.66 -10.46 39.03 -9.52 39.39 -8.58 39.74 -7.61 40.08 -6.64 40.4 -5.66 40.71 -4.65 41.01 -3.64 41.29 -2.62 41.58 -1.58 41.83 -0.53 0 13.67 -41.49 0.53 -41.22 1.57 -40.95 2.59 -40.67 3.61 -40.37 4.62 -40.06 5.61 -39.74 6.58 -39.4 7.55 -39.06 8.5 -38.69 9.44 -38.33 10.37 -37.94 11.29 -37.54 12.18 -37.13 13.08 -36.71 13.96 -36.27 14.82 -35.83 15.67 -35.36 16.52 -34.89 17.34 -34.4 18.15 -33.91 18.96 -33.4 19.74 -32.88 20.51 -32.33 21.29 -31.79 22.03 -31.23 22.77 -30.64 23.5 -30.07 24.21 -29.46 24.92 -28.85 25.61 -28.22 26.27 -27.59 26.95 0 0zm-393.31 664.9l0 -13.67 -6.42 4.49 7.84 -21.07 8.19 -21.35 8.54 -21.6 8.87 -21.83 9.21 -22.03 9.53 -22.18 9.85 -22.32 10.15 -22.43 10.46 -22.49 10.75 -22.54 11.04 -22.55 11.32 -22.53 11.59 -22.48 11.87 -22.41 12.11 -22.3 12.37 -22.16 12.62 -22 12.84 -21.79 13.08 -21.56 13.3 -21.31 13.52 -21.01 13.73 -20.7 13.93 -20.34 14.12 -19.96 14.32 -19.56 14.49 -19.11 14.67 -18.65 14.84 -18.14 15 -17.62 15.15 -17.05 15.31 -16.46 15.45 -15.84 9.67 9.67 -15.21 15.59 -15.1 16.23 -14.97 16.83 -14.82 17.4 -14.67 17.94 -14.52 18.45 -14.35 18.93 -14.18 19.38 -14 19.79 -13.82 20.17 -13.62 20.53 -13.42 20.86 -13.21 21.15 -12.99 21.42 -12.76 21.64 -12.52 21.86 -12.29 22.02 -12.04 22.17 -11.79 22.27 -11.52 22.36 -11.25 22.41 -10.97 22.43 -10.69 22.41 -10.4 22.37 -10.1 22.31 -9.79 22.2 -9.48 22.06 -9.16 21.9 -8.81 21.71 -8.49 21.48 -8.15 21.23 -7.79 20.93 -6.42 4.49zm6.42 -4.49l-1.64 4.49 -4.77 0 6.42 -4.49zm-55.14 -9.18l48.72 0 0 13.67 -48.72 0 -6.44 -9.12 6.44 -4.55zm0 13.67l-9.68 0 3.24 -9.12 6.44 9.12zm399.94 -706.98l9.67 9.67 0 0 -16.01 16.41 -15.87 17.06 -15.72 17.66 -15.56 18.26 -15.4 18.8 -15.23 19.33 -15.04 19.83 -14.86 20.28 -14.66 20.72 -14.45 21.11 -14.24 21.48 -14.02 21.82 -13.79 22.13 -13.56 22.41 -13.31 22.65 -13.05 22.86 -12.8 23.06 -12.54 23.2 -12.25 23.33 -11.97 23.41 -11.68 23.48 -11.39 23.5 -11.08 23.51 -10.77 23.47 -10.45 23.42 -10.11 23.32 -9.78 23.19 -9.43 23.05 -9.08 22.86 -8.72 22.64 -8.36 22.4 -7.98 22.11 -12.88 -4.57 8.03 -22.25 8.41 -22.54 8.78 -22.76 9.13 -23 9.49 -23.17 9.83 -23.33 10.18 -23.44 10.49 -23.55 10.83 -23.61 11.14 -23.64 11.45 -23.64 11.76 -23.61 12.04 -23.55 12.33 -23.47 12.6 -23.34 12.87 -23.2 13.14 -23 13.39 -22.8 13.65 -22.56 13.9 -22.28 14.11 -21.98 14.35 -21.65 14.57 -21.28 14.79 -20.89 15 -20.47 15.18 -20.01 15.38 -19.53 15.57 -19.02 15.75 -18.46 15.92 -17.9 16.07 -17.28 16.24 -16.66 0 0zm1178.52 -488.16l0 13.67 0 0 -42.67 0.54 -42.39 1.61 -42.12 2.67 -41.83 3.71 -41.52 4.75 -41.21 5.77 -40.87 6.77 -40.53 7.77 -40.18 8.74 -39.8 9.72 -39.42 10.66 -39.02 11.61 -38.61 12.53 -38.19 13.45 -37.76 14.36 -37.3 15.23 -36.85 16.13 -36.37 16.98 -35.88 17.83 -35.39 18.67 -34.88 19.5 -34.35 20.31 -33.81 21.1 -33.26 21.9 -32.7 22.66 -32.12 23.42 -31.52 24.17 -30.93 24.89 -30.3 25.63 -29.68 26.34 -29.03 27.02 -28.37 27.71 -9.67 -9.67 28.61 -27.93 29.28 -27.25 29.91 -26.55 30.56 -25.83 31.18 -25.11 31.78 -24.36 32.38 -23.62 32.96 -22.85 33.54 -22.07 34.09 -21.28 34.63 -20.48 35.17 -19.65 35.68 -18.83 36.18 -17.99 36.68 -17.12 37.15 -16.25 37.63 -15.37 38.07 -14.47 38.5 -13.56 38.94 -12.64 39.35 -11.7 39.74 -10.76 40.14 -9.8 40.5 -8.82 40.87 -7.83 41.21 -6.83 41.55 -5.81 41.86 -4.78 42.17 -3.74 42.46 -2.7 42.75 -1.63 43.01 -0.54 0 0z"></path> </g> <path class="fil4 str0" d="M949.38 1209.79l0 18.41m0 556.1l0 252.08m0 577.58l0 252.08"></path> <polygon class="fil5" points="3951.97,506.32 3968.69,737.18 3737.25,733.07 "></polygon> <rect class="fil0" x="-0" y="1206.72" width="2228.17" height="577.58" rx="94.43" ry="85.6"></rect> <circle class="fil1" cx="1874.08" cy="1494.36" r="142.13"></circle> <circle class="fil1" cx="1391.06" cy="1494.36" r="142.13"></circle> <rect class="fil1" x="676.71" y="1335" width="85.89" height="310.09"></rect> <rect class="fil1" x="524.28" y="1335" width="85.89" height="310.09"></rect> <rect class="fil1" x="371.85" y="1335" width="85.89" height="310.09"></rect> <rect class="fil1" x="219.42" y="1335" width="85.89" height="310.09"></rect> </g> </svg>