<svg xmlns="http://www.w3.org/2000/svg" xmlns:xlink="http://www.w3.org/1999/xlink" xmlns:xodm="http://www.corel.com/coreldraw/odm/2003" xml:space="preserve" width="16.5367mm" height="20.68mm" style="shape-rendering:geometricPrecision; text-rendering:geometricPrecision; image-rendering:optimizeQuality; fill-rule:evenodd; clip-rule:evenodd" viewBox="0 0 10.07 12.59"> <defs> <style type="text/css"> .fil2 {fill:#FEFEFE} .fil1 {fill:#1A3059} .fil0 {fill:red} </style> </defs> <g id="Layer_x0020_1"> <metadata id="CorelCorpID_0Corel-Layer"></metadata> <path class="fil0" d="M3.25 4.74c0,0.63 0.04,0.99 0.18,1.61 0.66,-0.02 1.32,-0.05 1.99,-0.04l1.22 0.04c0.14,-0.53 0.19,-1.03 0.19,-1.59 0,-0.38 -0.08,-1.06 -0.19,-1.39 -0.27,-0 -0.46,0.03 -0.71,0.03l-1.13 0.01c-0.27,-0 -1.2,-0.05 -1.37,-0.04 -0.1,0.36 -0.19,0.97 -0.19,1.37z"></path> <path class="fil0" d="M-0 4.77c0,0.4 0.02,0.72 0.1,1.11 0.04,0.18 0.17,0.71 0.26,0.81 0.06,0.01 0.8,-0.12 0.94,-0.14 0.13,-0.02 0.94,-0.1 0.97,-0.12 0.03,-0.03 -0.03,-0.28 -0.04,-0.35 -0.06,-0.39 -0.11,-0.82 -0.11,-1.21 0,-0.32 0.03,-0.54 0.05,-0.83 0.01,-0.12 0.03,-0.27 0.05,-0.38 0.02,-0.08 0.06,-0.31 0.06,-0.37 -0.28,-0.06 -0.67,-0.06 -0.98,-0.12l-0.97 -0.14c-0.2,0.59 -0.35,1.08 -0.35,1.74z"></path> <path class="fil0" d="M7.78 3.28c0,0.09 0.04,0.29 0.07,0.38 0.06,0.25 0.1,0.96 0.1,1.21 -0,0.3 -0.04,0.91 -0.11,1.21 -0.01,0.06 -0.02,0.13 -0.03,0.18 -0.05,0.27 -0.11,0.14 0.96,0.29 0.15,0.02 0.33,0.04 0.47,0.07 0.11,0.02 0.37,0.07 0.47,0.07 0.09,-0.12 0.16,-0.44 0.21,-0.61 0.2,-0.75 0.18,-1.49 0.05,-2.23 -0.02,-0.12 -0.17,-0.68 -0.23,-0.79 -0.03,-0.06 -0.07,-0.04 -0.14,-0.03 -0.29,0.06 -0.77,0.1 -1.08,0.15 -0.24,0.04 -0.51,0.05 -0.75,0.09z"></path> <path class="fil1" d="M3.82 2.25c0,0 0.01,0 0.01,0.01 0,0 0.01,0 0.01,0 0.11,0.04 1.65,0.02 1.8,0.02 0.17,-0 0.46,0.01 0.61,-0.02 0.02,-0.2 -0.68,-1.33 -0.86,-1.59 -0.07,-0.1 -0.29,-0.44 -0.35,-0.48 -0.16,0.07 -1.25,1.88 -1.22,2.06z"></path> <path class="fil1" d="M6.32 0.01c0.01,0.04 0.12,0.2 0.15,0.25 0.38,0.56 0.72,1.29 0.98,1.91 0.17,0.01 1.61,-0.15 1.69,-0.21 -0.01,-0.12 -0.46,-0.58 -0.54,-0.66 -0.19,-0.19 -0.41,-0.38 -0.65,-0.55 -0.23,-0.16 -0.47,-0.31 -0.75,-0.45 -0.09,-0.04 -0.82,-0.36 -0.88,-0.3z"></path> <path class="fil1" d="M0.94 1.97c0.09,0.04 1.57,0.21 1.67,0.2l0.38 -0.84c0.15,-0.29 0.28,-0.54 0.45,-0.81l0.28 -0.44c0.02,-0.03 0.03,-0.04 0.02,-0.08 -0.14,-0 -0.74,0.25 -0.87,0.31 -0.28,0.14 -0.51,0.27 -0.75,0.44 -0.12,0.09 -0.21,0.16 -0.34,0.26 -0.13,0.1 -0.21,0.2 -0.31,0.29 -0.11,0.1 -0.54,0.57 -0.53,0.66z"></path> <path class="fil1" d="M1.59 7.37l0 0.74c0,0.15 0.15,0.23 0.41,0.23l5.99 0c0.61,0 0.48,-0.2 0.48,-0.59 0,-0.14 0,-0.29 0,-0.43 -0,-0.14 -0.15,-0.21 -0.39,-0.21l-6.11 0c-0.35,0 -0.39,0.13 -0.39,0.28z"></path> <rect class="fil2" x="2.99" y="7.6" width="2.29" height="0.24"></rect> <circle class="fil2" cx="6.56" cy="7.76" r="0.2"></circle> <circle class="fil2" cx="7.53" cy="7.76" r="0.2"></circle> <path class="fil1" d="M1.59 11.63l0 0.74c0,0.15 0.15,0.23 0.41,0.23l5.99 0c0.61,0 0.48,-0.2 0.48,-0.59 0,-0.14 0,-0.29 0,-0.43 -0,-0.14 -0.15,-0.21 -0.39,-0.21l-6.11 0c-0.35,0 -0.39,0.13 -0.39,0.28z"></path> <rect class="fil2" x="2.99" y="11.86" width="2.29" height="0.24"></rect> <circle class="fil2" cx="6.56" cy="12.01" r="0.2"></circle> <circle class="fil2" cx="7.53" cy="12.01" r="0.2"></circle> <path class="fil0" d="M1.59 9.43l0 0.74c0,0.15 0.15,0.23 0.41,0.23l5.99 0c0.61,0 0.48,-0.2 0.48,-0.59 0,-0.14 0,-0.29 0,-0.43 -0,-0.14 -0.15,-0.21 -0.39,-0.21l-6.11 0c-0.35,0 -0.39,0.13 -0.39,0.28z"></path> <rect class="fil2" x="2.99" y="9.66" width="2.29" height="0.24"></rect> <circle class="fil2" cx="6.56" cy="9.81" r="0.2"></circle> <circle class="fil2" cx="7.53" cy="9.81" r="0.2"></circle> </g> </svg>