<svg xmlns="http://www.w3.org/2000/svg" xmlns:xlink="http://www.w3.org/1999/xlink" xmlns:xodm="http://www.corel.com/coreldraw/odm/2003" xml:space="preserve" width="55.2491mm" height="55.1778mm" style="shape-rendering:geometricPrecision; text-rendering:geometricPrecision; image-rendering:optimizeQuality; fill-rule:evenodd; clip-rule:evenodd" viewBox="0 0 266 265.66"> <defs>  <style type="text/css">   <![CDATA[    .str1 {stroke:#FEFEFE;stroke-width:1.27;stroke-miterlimit:22.9256}    .str0 {stroke:#2B2A29;stroke-width:1.27;stroke-miterlimit:22.9256}    .fil4 {fill:none}    .fil1 {fill:#FEFEFE}    .fil5 {fill:#2B2A29}    .fil0 {fill:#1A3059}    .fil3 {fill:#B5EBFF}    .fil2 {fill:red}   ]]>  </style> </defs> <g id="Layer_x0020_1">  <metadata id="CorelCorpID_0Corel-Layer"></metadata>  <rect class="fil0" x="-0" y="-0" width="266" height="174.4"></rect>  <rect class="fil1" x="-0" y="16.05" width="266" height="19.01"></rect>  <rect class="fil2" x="56.7" y="27.74" width="23.88" height="5.03" rx="0.75" ry="0.75"></rect>  <rect class="fil2" x="88.88" y="27.74" width="23.88" height="5.03" rx="0.75" ry="0.75"></rect>  <rect class="fil2" x="121.06" y="27.74" width="23.88" height="5.03" rx="0.75" ry="0.75"></rect>  <rect class="fil2" x="153.24" y="27.74" width="23.88" height="5.03" rx="0.75" ry="0.75"></rect>  <rect class="fil2" x="185.42" y="27.74" width="23.88" height="5.03" rx="0.75" ry="0.75"></rect>  <path class="fil3" d="M29.07 92.41l207.85 0c6.39,0 11.62,5.23 11.62,11.62l0 161.64 -231.08 0 0 -161.64c0,-6.39 5.23,-11.62 11.62,-11.62z"></path>  <polygon class="fil2" points="17.46,174.4 248.54,174.4 248.54,265.66 17.46,265.66 "></polygon>  <line class="fil4 str0" x1="46.78" y1="132.91" x2="197.56" y2="132.91"></line>  <line class="fil4 str1" x1="46.78" y1="218.63" x2="197.56" y2="218.63"></line>  <circle class="fil5" cx="228.19" cy="132.91" r="5.76"></circle>  <circle class="fil1" cx="228.19" cy="218.63" r="5.76"></circle> </g></svg>